<svg xmlns="http://www.w3.org/2000/svg" width="1254" height="1254" viewBox="0 0 1254 1254" fill="none">
  <g fill="#1B2430">
    <path d="M 838 394 L 826 397 L 814 403 L 807 408 L 795 422 L 789 434 L 786 445 L 786 464 L 788 473 L 799 494 L 930 624 L 930 627 L 799 758 L 793 767 L 788 779 L 786 788 L 787 810 L 789 817 L 800 836 L 812 847 L 825 854 L 841 858 L 853 858 L 873 853 L 889 843 L 1060 672 L 1067 662 L 1074 645 L 1076 636 L 1076 615 L 1071 597 L 1061 580 L 886 407 L 865 396 L 855 394 Z M 841 416 L 853 416 L 860 418 L 869 423 L 878 431 L 1044 596 L 1049 605 L 1053 618 L 1053 632 L 1051 641 L 1046 652 L 1041 659 L 871 828 L 862 833 L 849 836 L 833 833 L 824 828 L 816 820 L 810 809 L 808 799 L 809 788 L 811 782 L 817 772 L 953 636 L 956 629 L 956 621 L 954 616 L 818 481 L 810 468 L 808 459 L 808 451 L 810 442 L 816 431 L 824 423 L 833 418 Z"/><path d="M 399 394 L 384 398 L 366 409 L 191 581 L 179 605 L 177 614 L 177 637 L 184 658 L 191 669 L 361 842 L 368 847 L 383 854 L 392 856 L 412 856 L 424 853 L 435 848 L 442 843 L 452 833 L 461 817 L 465 801 L 465 789 L 460 770 L 453 758 L 323 627 L 323 624 L 456 492 L 466 472 L 468 463 L 467 441 L 459 422 L 453 414 L 443 405 L 431 398 L 416 394 Z M 401 416 L 414 416 L 421 418 L 430 423 L 438 431 L 443 440 L 445 447 L 445 461 L 441 472 L 438 477 L 300 614 L 297 620 L 297 629 L 299 634 L 429 764 L 437 774 L 440 780 L 443 792 L 441 807 L 435 818 L 426 827 L 417 832 L 410 834 L 392 833 L 377 825 L 213 660 L 204 646 L 200 633 L 200 619 L 202 610 L 206 601 L 214 590 L 384 424 L 392 419 Z"/><path d="M 721 315 L 705 312 L 692 312 L 681 314 L 662 322 L 656 326 L 644 338 L 635 354 L 630 369 L 534 710 L 489 877 L 489 894 L 495 911 L 499 917 L 510 928 L 527 937 L 540 940 L 559 940 L 575 936 L 587 930 L 601 917 L 614 891 L 760 372 L 759 353 L 751 336 L 736 322 Z M 713 336 L 724 342 L 732 350 L 737 364 L 736 374 L 733 381 L 719 434 L 716 441 L 679 575 L 676 582 L 672 600 L 667 614 L 666 621 L 613 806 L 605 838 L 602 845 L 592 884 L 585 900 L 579 907 L 571 913 L 557 918 L 538 917 L 527 912 L 516 901 L 512 891 L 512 878 L 553 728 L 559 710 L 564 688 L 572 663 L 573 656 L 653 373 L 659 357 L 663 351 L 674 341 L 682 337 L 694 334 L 703 334 Z"/>
  </g>
  <g fill="#73D3C3">
    <path d="M 846 417 L 838 418 L 828 422 L 816 433 L 813 438 L 810 447 L 810 463 L 814 473 L 818 479 L 954 614 L 958 622 L 957 631 L 951 640 L 817 774 L 813 781 L 810 790 L 810 803 L 813 813 L 816 818 L 826 828 L 834 832 L 841 834 L 853 834 L 861 832 L 870 827 L 1041 657 L 1050 639 L 1052 622 L 1048 606 L 1040 593 L 870 425 L 859 419 Z M 846 445 L 850 443 L 856 443 L 862 446 L 884 466 L 918 502 L 937 525 L 939 530 L 939 536 L 932 545 L 927 547 L 918 545 L 875 496 L 842 466 L 839 460 L 839 455 L 841 450 Z"/><path d="M 410 417 L 399 418 L 386 424 L 213 593 L 208 600 L 203 612 L 201 622 L 203 640 L 212 657 L 379 825 L 390 831 L 398 833 L 407 833 L 416 831 L 428 824 L 435 816 L 441 801 L 441 788 L 438 779 L 432 769 L 298 635 L 295 627 L 295 622 L 298 615 L 302 610 L 433 481 L 439 473 L 444 458 L 444 449 L 439 435 L 426 422 L 420 419 Z M 396 453 L 403 462 L 403 468 L 401 473 L 379 492 L 356 515 L 325 552 L 321 554 L 312 553 L 306 547 L 304 543 L 304 537 L 307 531 L 334 498 L 361 471 L 381 454 L 388 451 Z"/><path d="M 711 337 L 691 336 L 675 342 L 663 353 L 656 368 L 577 647 L 573 665 L 565 690 L 560 712 L 513 880 L 514 893 L 519 903 L 525 909 L 537 915 L 552 917 L 568 913 L 576 908 L 581 903 L 589 889 L 662 630 L 663 623 L 673 591 L 679 566 L 684 552 L 688 534 L 735 371 L 735 362 L 731 351 L 722 342 Z M 694 368 L 701 374 L 703 378 L 703 385 L 677 477 L 674 484 L 673 491 L 666 499 L 655 500 L 648 495 L 646 491 L 646 482 L 670 400 L 675 378 L 681 370 L 685 368 Z"/>
  </g>
  <g fill="#FFFFFF">
    <path d="M 396 455 L 392 453 L 387 453 L 382 455 L 363 471 L 334 500 L 308 532 L 306 536 L 306 543 L 309 549 L 315 552 L 324 551 L 355 514 L 377 492 L 400 472 L 401 470 L 401 461 Z"/><path d="M 847 446 L 842 451 L 841 454 L 841 461 L 843 465 L 859 479 L 889 509 L 919 544 L 928 545 L 932 543 L 936 539 L 937 529 L 932 521 L 911 496 L 880 464 L 862 448 L 857 445 Z"/><path d="M 692 369 L 687 369 L 682 371 L 677 377 L 677 381 L 673 392 L 672 399 L 661 434 L 653 466 L 650 473 L 647 489 L 649 494 L 652 497 L 657 499 L 665 498 L 671 492 L 673 482 L 689 429 L 690 422 L 698 397 L 699 390 L 701 386 L 701 377 L 695 370 Z"/>
  </g>
</svg>
